# xmcd
#
# Track frame offsets:
#	150
#	14404
#	27776
#	44814
#	61240
#	72684
#	87104
#	103476
#	118505
#	134363
#	157500
#	173513
#	191129
#	210598
#	224993
#	239825
#	256259
#	275951
#	291468
#	308461
#	322989
#
# Disc length: 4557 seconds
#
# Revision: 1
# Processed by: cddbd v1.5PL3 Copyright (c) Steve Scherf et al.
# Submitted via: audiograbber 1.80
#
DISCID=4811cb15
DTITLE=Hank Williams III - Live in TX  March 3, 2001
DYEAR=1900
DGENRE=
TTITLE0=Wanted Man
TTITLE1=If The Shoe Fits
TTITLE2=Walking With Sorrow
TTITLE3=Wine Spodie Odie
TTITLE4=Lovin' and Huggin'
TTITLE5=Hillbilly Hellraiser
TTITLE6=Texassee
TTITLE7=Southbound
TTITLE8=7 Long Months and 39 Days
TTITLE9=Whiskey, Weed and Women
TTITLE10=Ramblin' Kind of Man
TTITLE11=Mississippi Mud
TTITLE12=I Don't Know
TTITLE13=Lonesome Blues
TTITLE14=Ramblin' Man
TTITLE15=WHiskey Bent and Hellbound
TTITLE16=O.B.S.
TTITLE17=Broke Lovesick and Drifting
TTITLE18=Cocaine Blues
TTITLE19=One Horse Town
TTITLE20=Dick in Dixie
EXTD=Live at Continental Club
EXTT0=
EXTT1=
EXTT2=
EXTT3=
EXTT4=
EXTT5=
EXTT6=
EXTT7=
EXTT8=
EXTT9=
EXTT10=
EXTT11=
EXTT12=
EXTT13=
EXTT14=
EXTT15=
EXTT16=
EXTT17=
EXTT18=
EXTT19=
EXTT20=
PLAYORDER=
